Coordinates
version=1
nRows=14
nColumns=46
inDegrees=yes

Units are S.I. units (second, meters, Newtons, ...)
Angles are in degrees.

endheader
time	pelvis_tilt	pelvis_list	pelvis_rotation	pelvis_tx	pelvis_ty	pelvis_tz	bb_angle	bb_tx	bb_ty	bb_tz	hip_flexion_r	hip_adduction_r	hip_rotation_r	knee_angle_r	knee_angle_r_beta	ankle_angle_r	subtalar_angle_r	mtp_angle_r	crank_angle_r	hip_flexion_l	hip_adduction_l	hip_rotation_l	knee_angle_l	knee_angle_l_beta	ankle_angle_l	subtalar_angle_l	mtp_angle_l	crank_angle_l	lumbar_extension	lumbar_bending	lumbar_rotation	arm_flex_r	arm_add_r	arm_rot_r	elbow_flex_r	pro_sup_r	wrist_flex_r	wrist_dev_r	arm_flex_l	arm_add_l	arm_rot_l	elbow_flex_l	pro_sup_l	wrist_flex_l	wrist_dev_l
      5.00000000	    -10.67718308	      1.70981988	      6.74374420	      0.10388871	      1.14253822	     -0.29852043	      0.00000000	      0.50000000	      0.00000000	      0.25000000	     51.21798063	    -12.48779121	     -2.30515405	     76.14330858	      1.32895144	     -9.70306148	    -10.08962885	      0.00000000	      0.00000000	     69.74607832	      2.45171398	      2.00241674	     73.05562902	      1.27506126	     19.06551996	     -6.52441194	      0.00000000	      0.00000000	    -63.18734666	      3.17889763	     -6.04742008	     78.19789263	    -19.02481390	     31.11248483	     67.05035653	     46.04753061	      0.00000000	      0.00000000	     87.11604018	    -27.58582796	     45.44994718	     62.34577915	     48.78341015	      0.00000000	      0.00000000
      5.00500000	    -10.19799640	      1.45513167	      6.62073437	      0.10461365	      1.14106603	     -0.29853001	      0.00000000	      0.50000000	      0.00000000	      0.25000000	     51.81032531	    -12.15965309	     -1.98609717	     78.67335554	      1.37310909	     -8.70491488	    -10.21653209	      0.00000000	      0.00000000	     67.99096668	      2.28291693	      2.31645876	     70.94275618	      1.23818468	     18.95678159	     -6.43255478	      0.00000000	      0.00000000	    -63.35085873	      3.27485657	     -5.75259181	     77.93223379	    -19.08626704	     31.17812539	     67.07299307	     46.06788077	      0.00000000	      0.00000000	     86.84682488	    -27.65005766	     45.57387420	     62.41679760	     48.81359636	      0.00000000	      0.00000000
      5.01000000	     -9.72442720	      1.22533151	      6.51458924	      0.10523425	      1.13961028	     -0.29854322	      0.00000000	      0.50000000	      0.00000000	      0.25000000	     52.37799838	    -11.87692357	     -1.70409096	     81.11822356	      1.41578008	     -7.61086054	    -10.24301059	      0.00000000	      0.00000000	     66.23576020	      2.10220952	      2.60241259	     68.83695582	      1.20143153	     18.68838491	     -6.21952451	      0.00000000	      0.00000000	    -63.50737273	      3.36010447	     -5.49547246	     77.72688644	    -19.15161949	     31.22976573	     67.05152684	     46.07864219	      0.00000000	      0.00000000	     86.62667511	    -27.69842965	     45.67159589	     62.49171271	     48.84233672	      0.00000000	      0.00000000
      5.01500000	     -9.37299581	      0.75792444	      6.42884521	      0.10572790	      1.13782792	     -0.29849817	      0.00000000	      0.50000000	      0.00000000	      0.25000000	     53.05841489	    -11.40001169	     -1.62222872	     83.47140084	      1.45685078	     -6.65237238	    -10.56110526	      0.00000000	      0.00000000	     64.71248071	      1.76781128	      3.10041140	     66.84544875	      1.16667317	     18.28921128	     -5.88602948	      0.00000000	      0.00000000	    -63.53975765	      3.62097298	     -5.06426883	     77.57638540	    -19.09589367	     31.29455147	     67.02146284	     46.08396179	      0.00000000	      0.00000000	     86.39456962	    -27.79217815	     45.72951674	     62.49654597	     48.85452701	      0.00000000	      0.00000000
      5.02000000	     -8.69717812	      0.93558757	      6.40067015	      0.10636185	      1.13694778	     -0.29850820	      0.00000000	      0.50000000	      0.00000000	      0.25000000	     53.41830606	    -11.57521232	     -1.23406632	     85.90881375	      1.49939166	     -5.01740071	    -10.02574577	      0.00000000	      0.00000000	     62.57349773	      1.81079157	      3.06145105	     64.60368377	      1.12754699	     17.82399144	     -5.47460233	      0.00000000	      0.00000000	    -63.98195629	      3.46773114	     -5.13611860	     77.48211924	    -19.25441745	     31.31262287	     66.88843667	     46.07574660	      0.00000000	      0.00000000	     86.25466804	    -27.66896026	     45.81848269	     62.59576455	     48.88900312	      0.00000000	      0.00000000
      5.02500000	     -8.45087933	      0.39952553	      6.31884921	      0.10649916	      1.13494199	     -0.29839894	      0.00000000	      0.50000000	      0.00000000	      0.25000000	     54.27205734	    -11.07382156	     -1.28615290	     88.22304846	      1.53978267	     -4.07227749	    -10.43697494	      0.00000000	      0.00000000	     61.20846259	      1.39978594	      3.63201955	     62.68411646	      1.09404422	     17.18469145	     -5.03015085	      0.00000000	      0.00000000	    -63.93732675	      3.83253072	     -4.58326046	     77.49318405	    -19.13376679	     31.35500139	     66.89447394	     46.08208960	      0.00000000	      0.00000000	     86.07627585	    -27.81348802	     45.83711881	     62.54099643	     48.88688599	      0.00000000	      0.00000000
      5.03000000	     -8.25854425	     -0.04153223	      6.26545937	      0.10673437	      1.13336199	     -0.29829838	      0.00000000	      0.50000000	      0.00000000	      0.25000000	     55.13762605	    -10.72453487	     -1.37769175	     90.43161327	      1.57832940	     -2.78194439	    -10.78092432	      0.00000000	      0.00000000	     59.76049969	      1.02972136	      4.09443764	     60.58543147	      1.05741526	     16.36983191	     -4.49323385	      0.00000000	      0.00000000	    -63.86646525	      4.09661947	     -4.19493411	     77.61337553	    -19.09681830	     31.35281261	     66.86898194	     46.07830352	      0.00000000	      0.00000000	     85.80677340	    -27.84986198	     45.89782993	     62.49807128	     48.89248971	      0.00000000	      0.00000000
      5.03500000	     -7.84849152	      0.01193104	      6.25334890	      0.10669354	      1.13306485	     -0.29872768	      0.00000000	      0.50000000	      0.00000000	      0.25000000	     55.76459119	    -10.91195170	     -1.17953464	     92.55795059	      1.61544099	     -1.04530371	    -10.08268307	      0.00000000	      0.00000000	     57.75645655	      1.13601691	      4.33878223	     58.08641394	      1.01379917	     15.30942129	     -4.48312802	      0.00000000	      0.00000000	    -64.16546376	      4.07034632	     -4.14323344	     77.88128866	    -19.22517328	     31.39714631	     66.47412994	     46.02660320	      0.00000000	      0.00000000	     85.70523446	    -27.54263317	     45.76856707	     62.28972133	     48.85689810	      0.00000000	      0.00000000
      5.04000000	     -7.83103889	     -0.50245913	      6.04305752	      0.10682818	      1.13165893	     -0.29879714	      0.00000000	      0.50000000	      0.00000000	      0.25000000	     56.86321822	    -10.43979331	     -1.26059478	     94.60915759	      1.65124130	      0.11032402	    -10.35092215	      0.00000000	      0.00000000	     56.41878139	      0.61677997	      4.81100404	     55.98765357	      0.97716890	     14.41220910	     -4.01419648	      0.00000000	      0.00000000	    -63.98119784	      4.28906309	     -3.62347184	     78.03113890	    -19.12969884	     31.41388826	     66.41076279	     46.01637248	      0.00000000	      0.00000000	     85.34382522	    -27.56695789	     45.65948616	     62.16888637	     48.82524148	      0.00000000	      0.00000000
      5.04500000	     -7.82356947	     -0.81677925	      5.68945558	      0.10719994	      1.13064513	     -0.29886078	      0.00000000	      0.50000000	      0.00000000	      0.25000000	     58.01324253	    -10.01336127	     -1.09891244	     96.63181466	      1.68654333	      1.45377686	    -10.30056176	      0.00000000	      0.00000000	     55.00641413	      0.06262890	      4.92131234	     53.89849469	      0.94070619	     13.43281754	     -3.57212240	      0.00000000	      0.00000000	    -63.84630824	      4.30577585	     -3.12859021	     78.19347134	    -19.08608566	     31.53139000	     66.19826936	     45.99305611	      0.00000000	      0.00000000	     84.96053372	    -27.43835558	     45.47708987	     61.99874819	     48.78113786	      0.00000000	      0.00000000
      5.05000000	     -7.74361723	     -0.88843761	      5.31044958	      0.10764873	      1.13009449	     -0.29901003	      0.00000000	      0.50000000	      0.00000000	      0.25000000	     59.11316976	     -9.78481259	     -0.74114802	     98.61266647	      1.72111571	      2.96631653	     -9.85497706	      0.00000000	      0.00000000	     53.20643381	     -0.31904253	      4.87312261	     51.43667069	      0.89773926	     12.59918732	     -3.21370313	      0.00000000	      0.00000000	    -63.74613911	      4.13187369	     -2.81039325	     78.40624965	    -19.11604741	     31.91253015	     65.81667587	     45.97319675	      0.00000000	      0.00000000	     84.56609238	    -27.09405151	     45.09583191	     61.64470841	     48.69710160	      0.00000000	      0.00000000
      5.05500000	     -7.79669662	     -1.37585235	      5.10173462	      0.10759716	      1.12949631	     -0.29922656	      0.00000000	      0.50000000	      0.00000000	      0.25000000	     60.30612237	     -9.34583338	     -0.86773826	    100.39257687	      1.75218101	      4.14094845	    -10.11230755	      0.00000000	      0.00000000	     51.75169522	     -0.87947230	      5.20047074	     49.19841018	      0.85867424	     11.70973153	     -2.61293713	      0.00000000	      0.00000000	    -63.59576242	      4.41287325	     -2.25607301	     78.65083818	    -18.98356372	     32.10236581	     65.74580615	     45.98040176	      0.00000000	      0.00000000	     84.27564257	    -27.09284545	     44.99191775	     61.46674486	     48.66756406	      0.00000000	      0.00000000
      5.06000000	     -7.68577477	     -1.33218855	      4.61635431	      0.10802864	      1.12951725	     -0.29958890	      0.00000000	      0.50000000	      0.00000000	      0.25000000	     61.40559782	     -9.07101988	     -0.30306009	    102.18848100	      1.78352545	      5.58895152	     -9.67634268	      0.00000000	      0.00000000	     49.84924854	     -1.27698513	      4.82726226	     46.79031530	      0.81664506	     10.79578225	     -2.24198647	      0.00000000	      0.00000000	    -63.60254710	      4.18120611	     -1.99444231	     78.97759866	    -19.01554297	     32.83160012	     65.26035084	     45.97921295	      0.00000000	      0.00000000	     83.80824257	    -26.69352919	     44.34251854	     61.13288543	     48.56957538	      0.00000000	      0.00000000
      5.06500000	     -7.85498504	     -1.85528538	      4.30388911	      0.10840113	      1.12898447	     -0.30022426	      0.00000000	      0.50000000	      0.00000000	      0.25000000	     62.73076836	     -8.58777234	     -0.43508126	    103.78933748	      1.81146567	      6.64304110	     -9.87634497	      0.00000000	      0.00000000	     48.46819077	     -1.94221950	      4.96975232	     44.67025776	      0.77964308	      9.98047587	     -1.63597583	      0.00000000	      0.00000000	    -63.34435007	      4.51856183	     -1.36236452	     79.16598081	    -18.81553474	     33.04647731	     65.24767567	     45.99647275	      0.00000000	      0.00000000	     83.38041022	    -26.72006291	     44.20293399	     61.02795348	     48.54506467	      0.00000000	      0.00000000
